<svg width="100%" height="100%" viewBox="0 0 96 96" version="1.1" xmlns="http://www.w3.org/2000/svg" style="fill-rule:evenodd;clip-rule:evenodd;stroke-linejoin:round;stroke-miterlimit:2;">
    <g id="twig-leaves-2" transform="matrix(1,0,0,1,3,3)">
        <g transform="matrix(1.61252,0,0,1.61252,-27.757,-4.16752)">
            <path d="M51.06,18.06C51.06,23.68 47.81,28.52 46.12,30.65C45.877,30.954 45.509,31.131 45.12,31.131C44.731,31.131 44.363,30.954 44.12,30.65C42.43,28.52 39.18,23.65 39.18,18.06C39.18,12.47 42.46,7.6 44.14,5.47C44.383,5.166 44.751,4.989 45.14,4.989C45.529,4.989 45.897,5.166 46.14,5.47C47.81,7.6 51.06,12.43 51.06,18.06Z" style="fill-rule:nonzero;"/>
        </g>
        <g transform="matrix(2.91798,0.78187,-0.78187,2.91798,-48.2693,-58.2746)">
            <path d="M36.49,25.89C39.83,28.803 42.072,32.775 42.84,37.14C42.96,37.82 42.24,38.38 41.41,38.26C38.48,37.83 32.2,36.52 27.71,32.78C24.37,29.867 22.128,25.895 21.36,21.53C21.24,20.85 21.96,20.29 22.79,20.41C25.71,20.83 32,22.14 36.49,25.89Z" style="fill-rule:nonzero;"/>
        </g>
        <g transform="matrix(2.91798,-0.78187,0.78187,2.91798,-124.351,12.0937)">
            <path d="M53.51,25.89C50.17,28.803 47.928,32.775 47.16,37.14C47.04,37.82 47.76,38.38 48.59,38.26C51.52,37.83 57.8,36.52 62.29,32.78C65.632,29.869 67.875,25.896 68.64,21.53C68.76,20.85 68.04,20.29 67.21,20.41C64.29,20.83 58,22.15 53.51,25.89Z" style="fill-rule:nonzero;"/>
        </g>
    </g>
</svg>
